/* XPM */
static char * bitcoin64_xpm[] = {
"48 48 728 2",
"  	c None",
". 	c #2B3252",
"+ 	c #313A5F",
"@ 	c #161E42",
"# 	c #303859",
"$ 	c #30375A",
"% 	c #363E66",
"& 	c #38426D",
"* 	c #39426D",
"= 	c #363F6A",
"- 	c #62687F",
"; 	c #242C4E",
"> 	c #2C3453",
", 	c #323A5F",
"' 	c #3C4672",
") 	c #3D4774",
"! 	c #38416B",
"~ 	c #37416B",
"{ 	c #37406D",
"] 	c #F2F4F2",
"^ 	c #E3E6E8",
"/ 	c #434964",
"( 	c #232A4C",
"_ 	c #2F3655",
": 	c #2B3150",
"< 	c #2F3658",
"[ 	c #384068",
"} 	c #3B4470",
"| 	c #3C4571",
"1 	c #3A436F",
"2 	c #38416C",
"3 	c #3A426E",
"4 	c #E5E8E8",
"5 	c #FAFDFC",
"6 	c #FCFDFA",
"7 	c #A9ADB7",
"8 	c #272E4F",
"9 	c #2A3151",
"0 	c #2E3555",
"a 	c #2B3251",
"b 	c #2D3455",
"c 	c #353E66",
"d 	c #3A436E",
"e 	c #3A426C",
"f 	c #39426C",
"g 	c #3E4772",
"h 	c #36406E",
"i 	c #454E78",
"j 	c #C7CBD5",
"k 	c #F9FBF7",
"l 	c #E9EBEB",
"m 	c #F1F4F3",
"n 	c #ECEEED",
"o 	c #F4F6F3",
"p 	c #73788C",
"q 	c #1F2648",
"r 	c #2C3353",
"s 	c #333B61",
"t 	c #3A446D",
"u 	c #303964",
"v 	c #A2A7B7",
"w 	c #FFFFFE",
"x 	c #FDFFFE",
"y 	c #FFFFFF",
"z 	c #F3F5F4",
"A 	c #EEF0EF",
"B 	c #EAECED",
"C 	c #F6F8F7",
"D 	c #EDEEED",
"E 	c #E9EBEA",
"F 	c #DADCDE",
"G 	c #444B66",
"H 	c #2C3352",
"I 	c #31395D",
"J 	c #3C456E",
"K 	c #2C3663",
"L 	c #737A96",
"M 	c #F4F6F4",
"N 	c #F4F6F5",
"O 	c #EFF1F1",
"P 	c #F2F3F2",
"Q 	c #FBFDFC",
"R 	c #F2F4F7",
"S 	c #646B8A",
"T 	c #EEF1EF",
"U 	c #E8EAEA",
"V 	c #F9FBF8",
"W 	c #ADB1BA",
"X 	c #2A3152",
"Y 	c #2D3454",
"Z 	c #2E3553",
"` 	c #262E52",
" .	c #4B5375",
"..	c #DBDEE2",
"+.	c #FAFBF9",
"@.	c #EDEFEF",
"#.	c #F1F3F2",
"$.	c #F0F2F1",
"%.	c #FDFFFB",
"&.	c #8B91A8",
"*.	c #333C6C",
"=.	c #DFE2E5",
"-.	c #F5F7F4",
";.	c #E9ECEB",
">.	c #ECEEEC",
",.	c #EAECEC",
"'.	c #F3F5F3",
").	c #767B8F",
"!.	c #1D2547",
"~.	c #262D4E",
"{.	c #AAAEB8",
"].	c #FEFFFC",
"^.	c #F0F3F1",
"/.	c #FFFFFC",
"(.	c #B9BDC8",
"_.	c #353E6B",
":.	c #374073",
"<.	c #3A4372",
"[.	c #212749",
"}.	c #7D8296",
"|.	c #F7F9F6",
"1.	c #EBEDEC",
"2.	c #DADDDF",
"3.	c #464C68",
"4.	c #21294A",
"5.	c #303756",
"6.	c #787D90",
"7.	c #EDEFEE",
"8.	c #F8FAF8",
"9.	c #E0E3E4",
"0.	c #52597F",
"a.	c #2E386A",
"b.	c #3B4578",
"c.	c #364174",
"d.	c #2C3356",
"e.	c #AFB2BC",
"f.	c #F9FAF7",
"g.	c #AEB2BB",
"h.	c #282F4F",
"i.	c #232B4C",
"j.	c #4C526C",
"k.	c #DFE2E2",
"l.	c #F3F4F2",
"m.	c #EEF1F0",
"n.	c #F2F4F3",
"o.	c #F6F8F4",
"p.	c #79809E",
"q.	c #293469",
"r.	c #384376",
"s.	c #364176",
"t.	c #384482",
"u.	c #323E78",
"v.	c #2E3658",
"w.	c #22294B",
"x.	c #444A66",
"y.	c #D9DCDE",
"z.	c #EAECEB",
"A.	c #ECEFED",
"B.	c #797E91",
"C.	c #1A2144",
"D.	c #BABDC5",
"E.	c #ABB0C0",
"F.	c #2F3A6D",
"G.	c #343F75",
"H.	c #36427A",
"I.	c #333F7B",
"J.	c #344181",
"K.	c #313F7E",
"L.	c #71778C",
"M.	c #F3F5F2",
"N.	c #E8EAE9",
"O.	c #D8DBDD",
"P.	c #383E5C",
"Q.	c #7B8092",
"R.	c #F6F8F5",
"S.	c #CCCFD4",
"T.	c #404A75",
"U.	c #2E3A74",
"V.	c #37437D",
"W.	c #323E7B",
"X.	c #323F7E",
"Y.	c #313F81",
"Z.	c #33438E",
"`.	c #2D3B85",
" +	c #2B3253",
".+	c #2E3657",
"++	c #A5A9B4",
"@+	c #FAFCF8",
"#+	c #F1F3F1",
"$+	c #BABDC4",
"%+	c #D8DADC",
"&+	c #F2F4F1",
"*+	c #EBEDED",
"=+	c #EFF1F0",
"-+	c #5C6380",
";+	c #1A2453",
">+	c #323D72",
",+	c #303F82",
"'+	c #2F3E85",
")+	c #30408E",
"!+	c #2C3C8C",
"~+	c #2B3152",
"{+	c #2F3659",
"]+	c #3F4562",
"^+	c #D3D6D9",
"/+	c #F6F7F5",
"(+	c #EFF1EF",
"_+	c #F8F9F5",
":+	c #8C92A6",
"<+	c #1B2553",
"[+	c #29325F",
"}+	c #263060",
"|+	c #2A366F",
"1+	c #2F3E84",
"2+	c #2F3E89",
"3+	c #2D3C8B",
"4+	c #2D3D8E",
"5+	c #2D409B",
"6+	c #2D3456",
"7+	c #2C3354",
"8+	c #1E2548",
"9+	c #6A6F84",
"0+	c #F9FAF6",
"a+	c #BDC0CA",
"b+	c #2B3460",
"c+	c #232D5C",
"d+	c #283363",
"e+	c #242F64",
"f+	c #232E64",
"g+	c #253271",
"h+	c #2B3B89",
"i+	c #2C3E93",
"j+	c #2A3C93",
"k+	c #2B3F9F",
"l+	c #25399C",
"m+	c #2C3252",
"n+	c #2E3556",
"o+	c #9DA1AE",
"p+	c #E2E4E5",
"q+	c #4B5378",
"r+	c #1B2657",
"s+	c #293464",
"t+	c #242F65",
"u+	c #232F68",
"v+	c #222F6A",
"w+	c #212E6A",
"x+	c #223074",
"y+	c #27388D",
"z+	c #283C9D",
"A+	c #263B9E",
"B+	c #253BA7",
"C+	c #242C4D",
"D+	c #39405E",
"E+	c #CDD0D4",
"F+	c #EDEFED",
"G+	c #79809A",
"H+	c #192456",
"I+	c #283264",
"J+	c #253066",
"K+	c #222F6B",
"L+	c #212F6E",
"M+	c #202F72",
"N+	c #1D2C73",
"O+	c #1D2D79",
"P+	c #223592",
"Q+	c #243AA8",
"R+	c #233CB4",
"S+	c #1E37AB",
"T+	c #1E2547",
"U+	c #63697E",
"V+	c #AAAFBD",
"W+	c #242E5E",
"X+	c #222D60",
"Y+	c #263167",
"Z+	c #222E68",
"`+	c #212F6F",
" @	c #1F2E72",
".@	c #1D2C76",
"+@	c #1C2C7A",
"@@	c #1B2B7C",
"#@	c #192B7F",
"$@	c #1B3195",
"%@	c #1E38B4",
"&@	c #1C36B9",
"*@	c #1F2649",
"=@	c #9DA1AD",
"-@	c #FAFCF9",
";@	c #ECEEEE",
">@	c #EEEFEE",
",@	c #DEE1E3",
"'@	c #444D75",
")@	c #19245A",
"!@	c #222F6C",
"~@	c #1F2E73",
"{@	c #1D2C77",
"]@	c #1C2C7B",
"^@	c #1B2C7F",
"/@	c #192B83",
"(@	c #172A86",
"_@	c #152988",
":@	c #162D9A",
"<@	c #1835C7",
"[@	c #1332C7",
"}@	c #232946",
"|@	c #242A46",
"1@	c #252C48",
"2@	c #262C49",
"3@	c #252C49",
"4@	c #252C4A",
"5@	c #262C4A",
"6@	c #272D4A",
"7@	c #272D4B",
"8@	c #272E4B",
"9@	c #272E4C",
"0@	c #2A304E",
"a@	c #242B4A",
"b@	c #2D3452",
"c@	c #ADB0B8",
"d@	c #E8E9E8",
"e@	c #DFE1E1",
"f@	c #E2E3E3",
"g@	c #E4E6E5",
"h@	c #6E7695",
"i@	c #18235C",
"j@	c #253069",
"k@	c #212F6C",
"l@	c #202E6F",
"m@	c #1D2C78",
"n@	c #1C2C7C",
"o@	c #1B2C80",
"p@	c #192B85",
"q@	c #172A89",
"r@	c #152A8E",
"s@	c #142993",
"t@	c #102794",
"u@	c #112AAC",
"v@	c #1330C3",
"w@	c #1A1F38",
"x@	c #1E243F",
"y@	c #1F243E",
"z@	c #212742",
"A@	c #232944",
"B@	c #232945",
"C@	c #222844",
"D@	c #222843",
"E@	c #191F3C",
"F@	c #7A7E8B",
"G@	c #CDCDCC",
"H@	c #C0C1C2",
"I@	c #C0C1C3",
"J@	c #C2C3C4",
"K@	c #C3C4C6",
"L@	c #C3C4C5",
"M@	c #C5C6C6",
"N@	c #C2C3C5",
"O@	c #CECFCE",
"P@	c #BCBEC2",
"Q@	c #37406C",
"R@	c #131F57",
"S@	c #1E2A62",
"T@	c #1A2765",
"U@	c #192669",
"V@	c #18276D",
"W@	c #162672",
"X@	c #152676",
"Y@	c #13257C",
"Z@	c #112481",
"`@	c #102487",
" #	c #0F238C",
".#	c #0B2293",
"+#	c #092097",
"@#	c #0A25AB",
"##	c #1B213A",
"$#	c #1C213B",
"%#	c #1C223B",
"&#	c #1F243F",
"*#	c #232A46",
"=#	c #262C47",
"-#	c #171E3C",
";#	c #52576B",
">#	c #C1C2C3",
",#	c #BCBDBF",
"'#	c #CDCDCA",
")#	c #9295A4",
"!#	c #1A255A",
"~#	c #16225C",
"{#	c #192563",
"]#	c #152366",
"^#	c #142269",
"/#	c #12216D",
"(#	c #102071",
"_#	c #0F2076",
":#	c #0D207B",
"<#	c #0B1F7F",
"[#	c #091D84",
"}#	c #071C8A",
"|#	c #051C93",
"1#	c #021B95",
"2#	c #1B213B",
"3#	c #1E233E",
"4#	c #1B203A",
"5#	c #1B2039",
"6#	c #1C213A",
"7#	c #1E233D",
"8#	c #212741",
"9#	c #1B213F",
"0#	c #313751",
"a#	c #ABADB2",
"b#	c #CACBCA",
"c#	c #BFC0C1",
"d#	c #C1C2C4",
"e#	c #CBCCC9",
"f#	c #646B8B",
"g#	c #0C1A5D",
"h#	c #182668",
"i#	c #15246B",
"j#	c #13226E",
"k#	c #112173",
"l#	c #0F2179",
"m#	c #0D207E",
"n#	c #0B1F82",
"o#	c #091D87",
"p#	c #071D8E",
"q#	c #041C94",
"r#	c #021DA4",
"s#	c #001B9E",
"t#	c #1D213A",
"u#	c #1D223C",
"v#	c #222742",
"w#	c #212743",
"x#	c #202643",
"y#	c #8A8D97",
"z#	c #CDCECD",
"A#	c #BEBFC1",
"B#	c #BFC0C2",
"C#	c #C6C7C6",
"D#	c #BABBBE",
"E#	c #374277",
"F#	c #0A1A64",
"G#	c #162570",
"H#	c #102173",
"I#	c #0F2178",
"J#	c #081D88",
"K#	c #061D8F",
"L#	c #031B96",
"M#	c #001B9F",
"N#	c #001AA2",
"O#	c #1C2139",
"P#	c #1E223B",
"Q#	c #121833",
"R#	c #575B6D",
"S#	c #C4C5C5",
"T#	c #C4C5C6",
"U#	c #C7C8C7",
"V#	c #C3C4C4",
"W#	c #C2C2C4",
"X#	c #CDCDC9",
"Y#	c #979BAC",
"Z#	c #15246E",
"`#	c #0D1E71",
" $	c #112379",
".$	c #0D207D",
"+$	c #061C90",
"@$	c #021B98",
"#$	c #001A9E",
"$$	c #001CAE",
"%$	c #001AA8",
"&$	c #1E233C",
"*$	c #151A34",
"=$	c #30354B",
"-$	c #96989C",
";$	c #A8A9A9",
">$	c #ADAEB1",
",$	c #BCBEBF",
"'$	c #C6C7C7",
")$	c #BDBEC0",
"!$	c #7D8193",
"~$	c #B2B4B9",
"{$	c #C8C8C8",
"]$	c #C1C3C3",
"^$	c #CCCCC8",
"/$	c #687198",
"($	c #041670",
"_$	c #0F227E",
":$	c #061C8F",
"<$	c #021B97",
"[$	c #001AA6",
"}$	c #001BAA",
"|$	c #1D223B",
"1$	c #7C7F88",
"2$	c #A9A9A8",
"3$	c #9C9D9E",
"4$	c #9D9E9F",
"5$	c #A1A2A4",
"6$	c #ADAEB0",
"7$	c #B7B8BB",
"8$	c #CECECD",
"9$	c #8D919F",
"0$	c #101A49",
"a$	c #747A91",
"b$	c #CECECC",
"c$	c #C7C7C6",
"d$	c #37468B",
"e$	c #00147C",
"f$	c #0C2188",
"g$	c #051C8E",
"h$	c #001A9F",
"i$	c #001BA4",
"j$	c #001DB7",
"k$	c #001CB0",
"l$	c #131833",
"m$	c #5B5F6E",
"n$	c #A7A8A8",
"o$	c #9FA0A1",
"p$	c #9FA0A2",
"q$	c #A0A1A2",
"r$	c #9A9B9D",
"s$	c #A7A7A7",
"t$	c #9E9FA4",
"u$	c #353C5C",
"v$	c #0F1949",
"w$	c #2B3562",
"x$	c #A8AAB3",
"y$	c #CACAC9",
"z$	c #BEBFC2",
"A$	c #CDCDC8",
"B$	c #9A9EB4",
"C$	c #0F2387",
"D$	c #01188C",
"E$	c #061E97",
"F$	c #001AA5",
"G$	c #001BAC",
"H$	c #001CB4",
"I$	c #20253F",
"J$	c #121732",
"K$	c #3C4055",
"L$	c #9D9EA0",
"M$	c #A3A4A4",
"N$	c #9E9FA0",
"O$	c #A2A2A3",
"P$	c #A2A3A4",
"Q$	c #474C61",
"R$	c #0E163A",
"S$	c #1E264D",
"T$	c #0E194C",
"U$	c #4D5579",
"V$	c #C6C6C6",
"W$	c #CECDC7",
"X$	c #6873A7",
"Y$	c #001290",
"Z$	c #011B9D",
"`$	c #011BA4",
" %	c #001EBE",
".%	c #001CB6",
"+%	c #161C36",
"@%	c #232841",
"#%	c #878991",
"$%	c #A8A8A8",
"%%	c #6C707D",
"&%	c #141B3D",
"*%	c #182043",
"=%	c #182046",
"-%	c #151E49",
";%	c #0F194B",
">%	c #757A90",
",%	c #C9CAC8",
"'%	c #C2C2C3",
")%	c #BFC0C3",
"!%	c #C5C6C5",
"~%	c #C1C2C2",
"{%	c #3446A3",
"]%	c #000F9F",
"^%	c #031DA9",
"/%	c #001CB1",
"(%	c #001DBC",
"_%	c #191F3B",
":%	c #6D707F",
"<%	c #AAABAA",
"[%	c #A7A7A6",
"}%	c #8C8E94",
"|%	c #242A48",
"1%	c #141B3E",
"2%	c #1A2246",
"3%	c #161E48",
"4%	c #18214C",
"5%	c #1C2657",
"6%	c #8D909A",
"7%	c #B8B8B7",
"8%	c #B9BABE",
"9%	c #C3C3C4",
"0%	c #BDBFC2",
"a%	c #CDCCC5",
"b%	c #9EA3BC",
"c%	c #0A23A8",
"d%	c #0017AC",
"e%	c #0220C3",
"f%	c #001CBE",
"g%	c #9C9DA1",
"h%	c #A0A1A3",
"i%	c #3F445C",
"j%	c #11183A",
"k%	c #1B2245",
"l%	c #171F46",
"m%	c #161F4A",
"n%	c #151F4C",
"o%	c #162151",
"p%	c #08144F",
"q%	c #3A436C",
"r%	c #A4A4A5",
"s%	c #ABADAF",
"t%	c #BABBBD",
"u%	c #C0C1C4",
"v%	c #CECDC5",
"w%	c #6C79B9",
"x%	c #0013B4",
"y%	c #001DC0",
"z%	c #A7A9AA",
"A%	c #A9AAA9",
"B%	c #616574",
"C%	c #121A3B",
"D%	c #192042",
"E%	c #192044",
"F%	c #171F47",
"G%	c #141F4D",
"H%	c #141F52",
"I%	c #111D55",
"J%	c #091656",
"K%	c #636985",
"L%	c #A9A9A5",
"M%	c #9B9C9E",
"N%	c #AAABAD",
"O%	c #B8B8BA",
"P%	c #C7C7C5",
"Q%	c #354BC8",
"R%	c #0010BF",
"S%	c #9EA0A3",
"T%	c #A9AAAB",
"U%	c #A8A9A8",
"V%	c #82848C",
"W%	c #1F2642",
"X%	c #161D3E",
"Y%	c #1B2243",
"Z%	c #171F44",
"`%	c #171F48",
" &	c #151F4B",
".&	c #141F4E",
"+&	c #121D53",
"@&	c #131F58",
"#&	c #0A1758",
"$&	c #172465",
"%&	c #878B99",
"&&	c #AAAAA6",
"*&	c #A8A9AB",
"=&	c #B3B5B7",
"-&	c #D1D1CB",
";&	c #A8AFD2",
">&	c #A4A5A5",
",&	c #9A9C9F",
"'&	c #373C53",
")&	c #121938",
"!&	c #1C2343",
"~&	c #182042",
"{&	c #141E50",
"]&	c #121D54",
"^&	c #101C58",
"/&	c #121E5D",
"(&	c #01105D",
"_&	c #364178",
":&	c #A2A3A3",
"<&	c #A4A5A4",
"[&	c #A2A3A5",
"}&	c #A7A8A9",
"|&	c #A8A9AA",
"1&	c #A5A6AA",
"2&	c #BDBDBD",
"3&	c #9C9DA2",
"4&	c #ABACAD",
"5&	c #575B6C",
"6&	c #121835",
"7&	c #1C2241",
"8&	c #1A2142",
"9&	c #131E51",
"0&	c #111E55",
"a&	c #0F1D5A",
"b&	c #0E1C5D",
"c&	c #0D1B65",
"d&	c #02136A",
"e&	c #5F6892",
"f&	c #ADADAC",
"g&	c #9D9FA4",
"h&	c #A9AAAA",
"i&	c #7F828C",
"j&	c #191F3A",
"k&	c #1C2242",
"l&	c #182044",
"m&	c #161F48",
"n&	c #161F4B",
"o&	c #141E4D",
"p&	c #131E53",
"q&	c #121E5A",
"r&	c #101E61",
"s&	c #0D1C65",
"t&	c #031569",
"u&	c #1B2B75",
"v&	c #141A33",
"w&	c #1D2340",
"x&	c #192140",
"y&	c #181F45",
"z&	c #17204B",
"A&	c #172150",
"B&	c #162154",
"C&	c #131E55",
"D&	c #111D58",
"E&	c #0F1C5C",
"F&	c #0C1A62",
"G&	c #171D37",
"H&	c #1F253F",
"I&	c #1A203F",
"J&	c #1B2244",
"K&	c #1A2247",
"L&	c #192149",
"M&	c #161E49",
"N&	c #161F4D",
"O&	c #151F4F",
"P&	c #1C213D",
"Q&	c #1B223F",
"R&	c #1A2040",
"S&	c #171F43",
"                                                                                                ",
"                                                                                                ",
"                                                                                                ",
"                                    . +                                                         ",
"                                  @ # $ % & * =                                                 ",
"                                  - ; > . , ' ) ! ~ {                                           ",
"                                ] ^ / ( _ : < [ } | ' 1 2 3                                     ",
"                              4 5 6 7 8 9 0 a b c d e f g h i j k l                             ",
"                              m n n o p q 0 r . r s f t f u v w x y z A B                       ",
"                            l C D E o F G ( _ r H a I J K L M N O P z Q y R S                   ",
"                          T 5 n n n U V W 8 X Y r . Z `  ...+.@.#.#.$.$.%.&.*.                  ",
"                          =.-.;.n >.,.n '.).!._ . 0 9 ~.{.].@.#.^.#.@./.(._.:.<.                ",
"                        [.}.|.D 1.n n E '.2.3.4.5.Y q 6.o n 7.#.#.@.8.9.0.a.b.c.                ",
"                      Y d.8 e.f.E 1.n 1.E k g.h.Y i.j.k.l.E n A m.n.o.p.q.r.s.t.u.              ",
"                    a v.5.w.x.y.'.E n n z.A.'.B.C._ D.f.U n n 1.,.%.E.F.G.H.I.J.K.              ",
"                    r Y r _ q L.M.n ,.n n N.-.O.P.Q.k z.1.n n U R.S.T.U.V.W.X.Y.Z.`.            ",
"                   +.+r r Y . ~.++@+U n n 1.1.#+$+%+&+z.*+n l =+z.-+;+>+X.Y.,+'+)+!+            ",
"                ~+{+r r r r _ ( ]+^+/+N.n n 1.1.'.(+,.n 1.1.z._+:+<+[+}+|+1+2+3+4+5+            ",
"                6+7+r r r r r _ 8+9+(+A l n n n ,.1.n 1.n U 0+a+b+c+d+e+f+g+h+i+j+k+l+          ",
"              m+n+r r r r r r Y H ( o+k l 1.n n 1.n n n U &+p+q+r+s+t+u+v+w+x+y+z+A+B+          ",
"            . {+r r r r r r r . _ C+D+E+|.z.n n n n n z.F+_+G+H+I+J+u+K+L+M+N+O+P+Q+R+S+        ",
"            < r r r r r r r r r . 5.T+U+E A l 1.1.1.1.U o.V+W+X+Y+Z+K+`+ @.@+@@@#@$@%@&@        ",
"           +b r r r r r r 7+7+7+7+Y 0 *@=@-@;@>@A A ,.-.,@'@)@q.Z+!@`+~@{@]@^@/@(@_@:@<@[@      ",
"          }@|@1@2@3@4@5@6@7@8@9@9@0@a@b@c@d@e@f@g@g@g@N.N.h@i@j@k@l@~@m@n@o@p@q@r@s@t@u@v@      ",
"          w@x@y@z@A@B@C@D@C@C@C@A@B@E@F@G@H@I@J@K@L@M@N@O@P@Q@R@S@T@U@V@W@X@Y@Z@`@ #.#+#@#      ",
"            ##$#%#&#z@B@*#B@B@B@=#-#;#J@M@H@>#>#>#>#H@H@,#'#)#!#~#{#]#^#/#(#_#:#<#[#}#|#1#      ",
"            2#3#4#5#6#7#8#B@B@=#9#0#a#b#c#J@J@J@d#J@J@J@d#d#e#f#g#h#i#j#k#l#m#n#o#p#q#r#s#      ",
"              6#7#t#6#5#6#u#v#w#x#y#z#A#>#J@J@>#>#>#J@d#J@B#C#D#E#F#G#H#I#m#n#J#K#L#M#N#        ",
"                $#6#$#6#6#O#P#Q#R#S#T#J@J@>#>#J@U#V#>#J@J@W#B#X#Y#Z#`# $.$n#J#+$@$#$$$%$        ",
"                $#3#6#6#6#&$*$=$-$;$>$,$L@J@'$)$!$~${$H@J@]$>#>#^$/$($_$n#J#:$<$#$[$}$          ",
"                  $#u#4#|$w@$#1$2$3$4$5$6$7$8$9$0$a$b$B#>#J@J@B#c$)$d$e$f$g$<$h$i$j$k$          ",
"                    7#6#|$l$m$n$o$p$q$o$r$s$t$u$v$w$x$y$A#J@>#J@z$A$B$C$D$E$#$F$G$H$            ",
"                    4#I$J$K$L$M$N$q$q$o$O$P$Q$R$S$T$U$V$M@H@>#>#>#I@W$X$Y$Z$`$}$ %.%            ",
"                      +%@%#%$%L$q$q$o$N$2$%%&%*%=%-%;%>%,%d#L@J@'%)%!%~%{%]%^%/%(%              ",
"                      _%:%<%N$o$q$q$L$[%}%|%1%2%3%4%v$5%6%7%8%L@L@9%0%a%b%c%d%e%f%              ",
"                        g%;$o$q$q$N$O$h%i%j%k%l%m%n%o%p%q%o$r%s%t%J@T#u%v%w%x%y%                ",
"                          z%q$q$o$N$A%B%C%D%E%F%m%G%H%I%J%K%L%M%q$N%O%u%U#P%Q%R%                ",
"                          S%T%q$4$U%V%W%X%Y%Z%`% &.&+&@&#&$&%&&&L$4$o$*&=&-&;&                  ",
"                            h%q$>&,&'&)&!&~&l%m% &{&]&^&/&(&_&:&<&[&}&|&[&1&2&                  ",
"                            3&4&;$5&6&7&8&*%F%m%n%9&0&a&b&c&d&e&f&p$S%g&                        ",
"                              h&i&j&_%k&D%l&m&n&o&p&q&r&s&c&t&u&                                ",
"                                '&v&w&x&~&y&z&A&B&C&D&E&F&                                      ",
"                                G&H&I&J&K&L&M&N&O&                                              ",
"                                  P&Q&R&S&                                                      ",
"                                                                                                ",
"                                                                                                ",
"                                                                                                ",
"                                                                                                "};
