/* XPM */
static char * bitcoin32_xpm[] = {
"32 32 411 2",
"  	c None",
". 	c #293051",
"+ 	c #333A5F",
"@ 	c #343B5C",
"# 	c #2C3355",
"$ 	c #363E66",
"% 	c #3A436E",
"& 	c #39426C",
"* 	c #38416B",
"= 	c #F5F7F4",
"- 	c #878C9D",
"; 	c #1D2446",
"> 	c #2F3554",
", 	c #2F3759",
"' 	c #3D4774",
") 	c #3A436F",
"! 	c #3A436C",
"~ 	c #303967",
"{ 	c #E6E9E9",
"] 	c #FEFFFE",
"^ 	c #ECEEED",
"/ 	c #4D536D",
"( 	c #232A4C",
"_ 	c #2E3453",
": 	c #2D3455",
"< 	c #363E67",
"[ 	c #3D4770",
"} 	c #2F3966",
"| 	c #707797",
"1 	c #FDFFFE",
"2 	c #F1F3F2",
"3 	c #EEEFEF",
"4 	c #FEFFFF",
"5 	c #E9EBEB",
"6 	c #F7F9F6",
"7 	c #C1C5CB",
"8 	c #282F50",
"9 	c #2C3353",
"0 	c #2C3352",
"a 	c #2D3454",
"b 	c #303960",
"c 	c #485076",
"d 	c #E3E5E7",
"e 	c #F9FBF8",
"f 	c #F2F4F4",
"g 	c #FBFDFD",
"h 	c #FFFFFF",
"i 	c #B4B9C9",
"j 	c #E3E6E6",
"k 	c #F0F2F0",
"l 	c #E8EAEA",
"m 	c #FAFCF8",
"n 	c #84899A",
"o 	c #1C2446",
"p 	c #303757",
"q 	c #2D3453",
"r 	c #22294A",
"s 	c #B0B4BF",
"t 	c #FEFFFC",
"u 	c #EDEFEF",
"v 	c #EFF1F1",
"w 	c #F7F9F7",
"x 	c #DEE1E3",
"y 	c #454E7A",
"z 	c #323D6B",
"A 	c #1F2648",
"B 	c #8D92A3",
"C 	c #FDFFFB",
"D 	c #EBEDEC",
"E 	c #EDEFEE",
"F 	c #4A506B",
"G 	c #272E4F",
"H 	c #202749",
"I 	c #74798D",
"J 	c #F7F9F5",
"K 	c #EAECEC",
"L 	c #F0F2F1",
"M 	c #F6F8F5",
"N 	c #687091",
"O 	c #2C366B",
"P 	c #3A457A",
"Q 	c #2C3354",
"R 	c #2D3557",
"S 	c #C2C5CB",
"T 	c #F7F8F5",
"U 	c #C3C6CB",
"V 	c #202849",
"W 	c #424965",
"X 	c #E5E7E7",
"Y 	c #EFF1F0",
"Z 	c #EAECEB",
"` 	c #FEFFFB",
" .	c #9BA0B6",
"..	c #28336A",
"+.	c #38437A",
"@.	c #364383",
"#.	c #323F7D",
"$.	c #2E3556",
"%.	c #2E3555",
"&.	c #232B4C",
"*.	c #4A516B",
"=.	c #E8EBEA",
"-.	c #FAFBF8",
";.	c #828798",
">.	c #ADB0BA",
",.	c #F6F7F4",
"'.	c #C3C6CD",
").	c #2E3869",
"!.	c #34407C",
"~.	c #33407E",
"{.	c #313F82",
"].	c #2F3E85",
"^.	c #2B3352",
"/.	c #2D3555",
"(.	c #303756",
"_.	c #1E2548",
":.	c #7E8495",
"<.	c #F8F9F6",
"[.	c #ECEEEC",
"}.	c #ECEDED",
"|.	c #EEF0EE",
"1.	c #EAEDEC",
"2.	c #474F73",
"3.	c #1D2756",
"4.	c #2E3A72",
"5.	c #2E3E8A",
"6.	c #2F4197",
"7.	c #283B91",
"8.	c #2B3253",
"9.	c #252C4D",
"0.	c #B7BBC3",
"a.	c #FBFCF8",
"b.	c #7E849C",
"c.	c #192354",
"d.	c #293466",
"e.	c #222E64",
"f.	c #253373",
"g.	c #2B3C8F",
"h.	c #2B3E9B",
"i.	c #253A9B",
"j.	c #2E3658",
"k.	c #2E3554",
"l.	c #424864",
"m.	c #E4E6E7",
"n.	c #FAFBF7",
"o.	c #B5B9C5",
"p.	c #202A5B",
"q.	c #263164",
"r.	c #232F68",
"s.	c #222F6C",
"t.	c #1F2D6E",
"u.	c #1F2F7B",
"v.	c #24389A",
"w.	c #253EB5",
"x.	c #1F2649",
"y.	c #71768A",
"z.	c #F3F5F3",
"A.	c #ECEFEE",
"B.	c #EBEDED",
"C.	c #F1F3F1",
"D.	c #D5D8DC",
"E.	c #38416C",
"F.	c #202B60",
"G.	c #25316A",
"H.	c #212F6D",
"I.	c #1F2E73",
"J.	c #1D2C79",
"K.	c #1B2B7C",
"L.	c #192B84",
"M.	c #1C35AB",
"N.	c #1936BC",
"O.	c #232947",
"P.	c #292F4F",
"Q.	c #282E4C",
"R.	c #272E4C",
"S.	c #282E4D",
"T.	c #282F4D",
"U.	c #282F4E",
"V.	c #2C3251",
"W.	c #212848",
"X.	c #454B65",
"Y.	c #E0E1E1",
"Z.	c #E6E7E7",
"`.	c #E4E6E6",
" +	c #F0F2EF",
".+	c #BCC0CA",
"++	c #202C60",
"@+	c #233069",
"#+	c #1C2C7A",
"$+	c #1B2C80",
"%+	c #182B87",
"&+	c #15298D",
"*+	c #122792",
"=+	c #132FBD",
"-+	c #1C2039",
";+	c #1E243E",
">+	c #212642",
",+	c #232944",
"'+	c #222844",
")+	c #222843",
"!+	c #202642",
"~+	c #A0A2A9",
"{+	c #C9CACA",
"]+	c #BFC0C2",
"^+	c #C2C3C4",
"/+	c #C3C4C5",
"(+	c #C1C2C4",
"_+	c #D1D2D0",
":+	c #717791",
"<+	c #0F1B55",
"[+	c #1D2965",
"}+	c #182569",
"|+	c #16256F",
"1+	c #132476",
"2+	c #11237E",
"3+	c #0F2386",
"4+	c #0B218D",
"5+	c #0822A1",
"6+	c #0822A5",
"7+	c #1E233E",
"8+	c #1D213A",
"9+	c #212742",
"0+	c #232945",
"a+	c #262C48",
"b+	c #161D3B",
"c+	c #737685",
"d+	c #CDCDCC",
"e+	c #C0C1C2",
"f+	c #C1C2C3",
"g+	c #C0C1C3",
"h+	c #C3C4C4",
"i+	c #3C4573",
"j+	c #0E1B5F",
"k+	c #17256B",
"l+	c #11216F",
"m+	c #0F2077",
"n+	c #0C1F7E",
"o+	c #091D85",
"p+	c #051C8E",
"q+	c #021B9C",
"r+	c #1C213A",
"s+	c #1D223D",
"t+	c #1B2139",
"u+	c #20253E",
"v+	c #181E3A",
"w+	c #4B5065",
"x+	c #C7C8C8",
"y+	c #BFC1C2",
"z+	c #CACAC8",
"A+	c #A4A7B3",
"B+	c #16246A",
"C+	c #102070",
"D+	c #102279",
"E+	c #0C2080",
"F+	c #081D88",
"G+	c #041B92",
"H+	c #011CA7",
"I+	c #001AA4",
"J+	c #1D223C",
"K+	c #1D223B",
"L+	c #191E37",
"M+	c #22273F",
"N+	c #95979B",
"O+	c #B7B8B9",
"P+	c #BEBFC0",
"Q+	c #C8C8C8",
"R+	c #A0A3AC",
"S+	c #B9BABD",
"T+	c #C4C5C5",
"U+	c #BEBFC2",
"V+	c #D0CFCB",
"W+	c #727A9C",
"X+	c #021571",
"Y+	c #0F2281",
"Z+	c #041C95",
"`+	c #001A9F",
" @	c #001BAC",
".@	c #1B223B",
"+@	c #1E233B",
"@@	c #141A34",
"#@	c #70737F",
"$@	c #A9A9A8",
"%@	c #9A9B9D",
"&@	c #A1A2A4",
"*@	c #B3B4B5",
"=@	c #B5B6B9",
"-@	c #232C56",
";@	c #797E94",
">@	c #CFCFCC",
",@	c #BEBFC1",
"'@	c #C7C7C5",
")@	c #38478E",
"!@	c #001483",
"~@	c #071F94",
"{@	c #00199E",
"]@	c #001CB1",
"^@	c #001CB0",
"/@	c #1E233D",
"(@	c #111732",
"_@	c #4A4E60",
":@	c #A7A8A8",
"<@	c #9E9FA0",
"[@	c #A0A1A2",
"}@	c #9D9EA0",
"|@	c #A4A5A5",
"1@	c #494D63",
"2@	c #0D1640",
"3@	c #262F5D",
"4@	c #B2B4BA",
"5@	c #C9CAC9",
"6@	c #C8C9C6",
"7@	c #A5A9B9",
"8@	c #091F90",
"9@	c #00189D",
"0@	c #011BA7",
"a@	c #001DB7",
"b@	c #2D324B",
"c@	c #98999D",
"d@	c #A3A4A4",
"e@	c #9F9FA1",
"f@	c #AAAAA9",
"g@	c #6F727F",
"h@	c #10183B",
"i@	c #1C2348",
"j@	c #0B1544",
"k@	c #474F71",
"l@	c #C1C1C1",
"m@	c #C4C5C6",
"n@	c #BEC0C3",
"o@	c #CECDC6",
"p@	c #717CB1",
"q@	c #000FA2",
"r@	c #0320BA",
"s@	c #001CBA",
"t@	c #84878E",
"u@	c #ACADAD",
"v@	c #9EA0A1",
"w@	c #9E9FA1",
"x@	c #A5A5A5",
"y@	c #8F9196",
"z@	c #1F2645",
"A@	c #151D41",
"B@	c #182049",
"C@	c #17214D",
"D@	c #09144C",
"E@	c #686D85",
"F@	c #B1B2AF",
"G@	c #B3B4B7",
"H@	c #C3C4C6",
"I@	c #CBCBC6",
"J@	c #374AB3",
"K@	c #0012BF",
"L@	c #9FA0A1",
"M@	c #9FA0A2",
"N@	c #3D4259",
"O@	c #11183B",
"P@	c #1A2247",
"Q@	c #161F49",
"R@	c #15204F",
"S@	c #0F1B54",
"T@	c #16235E",
"U@	c #8C8F98",
"V@	c #A2A3A1",
"W@	c #A4A5A7",
"X@	c #B1B3B7",
"Y@	c #CBCAC3",
"Z@	c #B3B9D4",
"`@	c #1832C0",
" #	c #9D9FA2",
".#	c #A9AAAC",
"+#	c #ABABAA",
"@#	c #656876",
"##	c #111838",
"$#	c #1B2244",
"%#	c #171F46",
"&#	c #161F4B",
"*#	c #131E50",
"=#	c #131F58",
"-#	c #05135A",
";#	c #364177",
">#	c #A7A8A6",
",#	c #A6A7A8",
"'#	c #A9AAAB",
")#	c #A6A8AA",
"!#	c #B4B5B7",
"~#	c #8C8F95",
"{#	c #1B213E",
"]#	c #19203F",
"^#	c #192044",
"/#	c #161F48",
"(#	c #151E4C",
"_#	c #131E52",
":#	c #111D5C",
"<#	c #101F67",
"[#	c #02136B",
"}#	c #626A8D",
"|#	c #AAACA8",
"1#	c #9A9CA4",
"2#	c #3D4258",
"3#	c #141A36",
"4#	c #1B2242",
"5#	c #182045",
"6#	c #18214D",
"7#	c #162152",
"8#	c #121E55",
"9#	c #0F1C5B",
"0#	c #0D1C62",
"a#	c #181D37",
"b#	c #1A2142",
"c#	c #171F45",
"d#	c #161F4A",
"                                                                ",
"                                                                ",
"                      . +                                       ",
"                      @ # $ % & *                               ",
"                    = - ; > , % ' ) ! ~                         ",
"                  { ] ^ / ( _ : < [ } | 1 2 3                   ",
"                  4 5 6 7 8 9 0 a b c d e f g h i               ",
"                j k ^ l m n o p q r s t u v w x y z             ",
"              A B C l D E l F G H I J K L L M N O P             ",
"            Q R 8 S T l 5 = U V W X Y Z 5 `  ...+.@.#.          ",
"            $.%.&.*.l E D =.-.;.>.m l 5 ,.'.).!.~.{.].          ",
"          ^./.9 (._.:.<.=.[.}.|.|.D 1.E Z 2.3.4.].5.6.7.        ",
"        8., 9 9 9 a 9.0.6 l ^ D D ^ l a.b.c.d.e.f.g.h.i.        ",
"        j.0 9 9 9 k.9.l.m.k 5 D D l n.o.p.q.r.s.t.u.v.w.        ",
"      a : Q a a a 9 p x.y.z.A.E B.C.D.E.F.G.H.I.J.K.L.M.N.      ",
"    O.P.Q.Q.R.S.T.U.V.W.X.Y.Z.`.`. +.+++@+H.I.#+$+%+&+*+=+      ",
"      -+;+>+,+,+'+,+)+!+~+{+]+^+/+(+_+:+<+[+}+|+1+2+3+4+5+6+    ",
"        7+8+;+9+0+a+b+c+d+]+^+e+f+g+f+h+i+j+k+l+m+n+o+p+q+      ",
"        r+s+t+-+u+v+w+x+^+f+g+x+/+(+y+z+A+B+C+D+E+F+G+H+I+      ",
"          J+r+K+L+M+N+O+P+/+Q+R+S+T+f+U+V+W+X+Y+F+Z+`+ @        ",
"          .@7++@@@#@$@%@&@*@=@-@;@>@,@f+(+'@)@!@~@{@]@^@        ",
"            /@(@_@:@<@[@}@|@1@2@3@4@5@e+]+6@7@8@9@0@a@          ",
"              b@c@d@e@}@f@g@h@i@j@k@l@(+m@n@o@p@q@r@s@          ",
"              t@u@v@w@x@y@z@A@B@C@D@E@F@G@f+H@I@J@K@            ",
"                &@L@M@|@N@O@P@Q@R@S@T@U@V@W@X@Y@Z@`@            ",
"                 #.#+#@###$#%#&#*#=#-#;#>#,#'#)#!#              ",
"                  :@~#{#]#^#/#(#_#:#<#[#}#|#1#                  ",
"                    2#3#4#5#6#7#8#9#0#                          ",
"                    a#z@b#c#d#                                  ",
"                      {#                                        ",
"                                                                ",
"                                                                "};
