/* XPM */
static char * bitcoin16_xpm[] = {
"16 16 132 2",
"  	c None",
". 	c #364068",
"+ 	c #2C3456",
"@ 	c #FFFFFB",
"# 	c #7D839D",
"$ 	c #2D3664",
"% 	c #3F4870",
"& 	c #222A4F",
"* 	c #666C84",
"= 	c #E4E7E7",
"- 	c #4D537B",
"; 	c #E1E4EB",
"> 	c #FFFFFF",
", 	c #E8EAEE",
"' 	c #4C5373",
") 	c #1D2547",
"! 	c #3B415E",
"~ 	c #D7DADC",
"{ 	c #E1E4E6",
"] 	c #2A3670",
"^ 	c #606990",
"/ 	c #EFF1F0",
"( 	c #FBFCF9",
"_ 	c #C2C5CB",
": 	c #282F4F",
"< 	c #ACB0BA",
"[ 	c #F9FBF8",
"} 	c #F2F4F2",
"| 	c #767B91",
"1 	c #2C3C8B",
"2 	c #374794",
"3 	c #1F2B66",
"4 	c #7D829A",
"5 	c #F8FAF5",
"6 	c #EFF1EF",
"7 	c #C6C9CE",
"8 	c #E7E9E9",
"9 	c #FCFEFA",
"0 	c #9CA0AD",
"a 	c #1C2346",
"b 	c #2E3556",
"c 	c #253BA1",
"d 	c #263684",
"e 	c #232F69",
"f 	c #1D275B",
"g 	c #ABB0BE",
"h 	c #F6F7F4",
"i 	c #F4F6F4",
"j 	c #C9CCD1",
"k 	c #313857",
"l 	c #2A3151",
"m 	c #303758",
"n 	c #2D3353",
"o 	c #1430B8",
"p 	c #1830A3",
"q 	c #192A7C",
"r 	c #213077",
"s 	c #1A2765",
"t 	c #394370",
"u 	c #E1E3E4",
"v 	c #E6E8E7",
"w 	c #EAECEB",
"x 	c #585E75",
"y 	c #1D2445",
"z 	c #2E3554",
"A 	c #2A3050",
"B 	c #2D3455",
"C 	c #272D4B",
"D 	c #061E9E",
"E 	c #092095",
"F 	c #0F227D",
"G 	c #162672",
"H 	c #0D1B5F",
"I 	c #767C95",
"J 	c #CBCCCA",
"K 	c #C2C3C4",
"L 	c #C8C9C9",
"M 	c #91949D",
"N 	c #222844",
"O 	c #212642",
"P 	c #1E243E",
"Q 	c #001A9F",
"R 	c #0A208D",
"S 	c #011574",
"T 	c #475287",
"U 	c #CACAC7",
"V 	c #C3C4C5",
"W 	c #B8B9BD",
"X 	c #C1C2C3",
"Y 	c #676A79",
"Z 	c #111632",
"` 	c #20253F",
" .	c #1B2039",
"..	c #031FB3",
"+.	c #0016AB",
"@.	c #172B8F",
"#.	c #B3B5BD",
"$.	c #CCCCCA",
"%.	c #BCBDC1",
"&.	c #3C4467",
"*.	c #858893",
"=.	c #ABACAB",
"-.	c #A1A2A3",
";.	c #3E4256",
">.	c #131834",
",.	c #001CB4",
"'.	c #8F98BF",
").	c #CDCCC5",
"!.	c #C0C0BE",
"~.	c #585F7C",
"{.	c #050E3E",
"].	c #2B314D",
"^.	c #97989B",
"/.	c #A9AAA9",
"(.	c #93959B",
"_.	c #727FC1",
":.	c #BABBBD",
"<.	c #B3B4B1",
"[.	c #6D7392",
"}.	c #081556",
"|.	c #192250",
"1.	c #10183E",
"2.	c #43495E",
"3.	c #AFAFAF",
"4.	c #A3A4A5",
"5.	c #1E2C70",
"6.	c #09185B",
"7.	c #151F51",
"8.	c #1A224B",
"9.	c #151C3E",
"0.	c #5E616F",
"a.	c #1B2240",
"                                ",
"                . +             ",
"        @ # $ % & * =           ",
"    - ; > , ' ) ! ~ > {         ",
"    ] ^ / ( _ : < [ } |         ",
"  1 2 3 4 5 6 7 8 9 0 a b       ",
"  c d e f g h / i j k l m n     ",
"o p q r s t u v w x y z A B C   ",
"D E F G H I J K L M N N O P     ",
"  Q R S T U V W X J Y Z `  .    ",
"  ..+.@.#.$.%.&.*.=.-.;.>.      ",
"    ,.'.).!.~.{.].^./.(.        ",
"    _.:.<.[.}.|.1.2.3.4.        ",
"          5.6.7.8.9.0.          ",
"                  a.            ",
"                                "};
